<mxfile host="app.diagrams.net" modified="2024-02-14T21:00:05.532Z" agent="Mozilla/5.0 (Windows NT 10.0; Win64; x64; rv:109.0) Gecko/20100101 Firefox/115.0" etag="Xs9vn_h4Utp75Iw_ZIFx" version="23.1.4" type="github">
  <diagram name="Page-1" id="zY0mLcmvpDzbfV66CibP">
    <mxGraphModel dx="1434" dy="754" grid="1" gridSize="10" guides="1" tooltips="1" connect="1" arrows="1" fold="1" page="1" pageScale="1" pageWidth="850" pageHeight="1100" math="0" shadow="0">
      <root>
        <mxCell id="0" />
        <mxCell id="1" parent="0" />
        <mxCell id="0r4grzwR4e4F5FuuQjWl-5" value="" style="edgeStyle=orthogonalEdgeStyle;rounded=0;orthogonalLoop=1;jettySize=auto;html=1;" edge="1" parent="1" source="0r4grzwR4e4F5FuuQjWl-1" target="0r4grzwR4e4F5FuuQjWl-4">
          <mxGeometry relative="1" as="geometry" />
        </mxCell>
        <mxCell id="0r4grzwR4e4F5FuuQjWl-1" value="Start" style="ellipse;whiteSpace=wrap;html=1;fillColor=#d5e8d4;strokeColor=#82b366;" vertex="1" parent="1">
          <mxGeometry x="40" y="40" width="120" height="80" as="geometry" />
        </mxCell>
        <mxCell id="0r4grzwR4e4F5FuuQjWl-9" value="" style="edgeStyle=orthogonalEdgeStyle;rounded=0;orthogonalLoop=1;jettySize=auto;html=1;" edge="1" parent="1" source="0r4grzwR4e4F5FuuQjWl-4" target="0r4grzwR4e4F5FuuQjWl-8">
          <mxGeometry relative="1" as="geometry" />
        </mxCell>
        <mxCell id="0r4grzwR4e4F5FuuQjWl-11" value="Hard" style="edgeLabel;html=1;align=center;verticalAlign=middle;resizable=0;points=[];" vertex="1" connectable="0" parent="0r4grzwR4e4F5FuuQjWl-9">
          <mxGeometry x="-0.0889" y="3" relative="1" as="geometry">
            <mxPoint as="offset" />
          </mxGeometry>
        </mxCell>
        <mxCell id="0r4grzwR4e4F5FuuQjWl-16" value="" style="edgeStyle=orthogonalEdgeStyle;rounded=0;orthogonalLoop=1;jettySize=auto;html=1;" edge="1" parent="1" source="0r4grzwR4e4F5FuuQjWl-4" target="0r4grzwR4e4F5FuuQjWl-15">
          <mxGeometry relative="1" as="geometry" />
        </mxCell>
        <mxCell id="0r4grzwR4e4F5FuuQjWl-17" value="Easy" style="edgeLabel;html=1;align=center;verticalAlign=middle;resizable=0;points=[];" vertex="1" connectable="0" parent="0r4grzwR4e4F5FuuQjWl-16">
          <mxGeometry x="-0.2" relative="1" as="geometry">
            <mxPoint as="offset" />
          </mxGeometry>
        </mxCell>
        <mxCell id="0r4grzwR4e4F5FuuQjWl-4" value="Easy or Hard Mode" style="rhombus;whiteSpace=wrap;html=1;" vertex="1" parent="1">
          <mxGeometry x="60" y="200" width="80" height="80" as="geometry" />
        </mxCell>
        <mxCell id="0r4grzwR4e4F5FuuQjWl-13" value="" style="edgeStyle=orthogonalEdgeStyle;rounded=0;orthogonalLoop=1;jettySize=auto;html=1;" edge="1" parent="1" source="0r4grzwR4e4F5FuuQjWl-8" target="0r4grzwR4e4F5FuuQjWl-12">
          <mxGeometry relative="1" as="geometry" />
        </mxCell>
        <mxCell id="0r4grzwR4e4F5FuuQjWl-8" value="Shuffle Deck" style="rounded=1;whiteSpace=wrap;html=1;" vertex="1" parent="1">
          <mxGeometry x="40" y="370" width="120" height="60" as="geometry" />
        </mxCell>
        <mxCell id="0r4grzwR4e4F5FuuQjWl-23" value="" style="edgeStyle=orthogonalEdgeStyle;rounded=0;orthogonalLoop=1;jettySize=auto;html=1;" edge="1" parent="1" source="0r4grzwR4e4F5FuuQjWl-12" target="0r4grzwR4e4F5FuuQjWl-22">
          <mxGeometry relative="1" as="geometry" />
        </mxCell>
        <mxCell id="0r4grzwR4e4F5FuuQjWl-12" value="Cut the Cards" style="rounded=1;whiteSpace=wrap;html=1;" vertex="1" parent="1">
          <mxGeometry x="40" y="510" width="120" height="60" as="geometry" />
        </mxCell>
        <mxCell id="0r4grzwR4e4F5FuuQjWl-19" value="" style="edgeStyle=orthogonalEdgeStyle;rounded=0;orthogonalLoop=1;jettySize=auto;html=1;" edge="1" parent="1" source="0r4grzwR4e4F5FuuQjWl-15" target="0r4grzwR4e4F5FuuQjWl-18">
          <mxGeometry relative="1" as="geometry" />
        </mxCell>
        <mxCell id="0r4grzwR4e4F5FuuQjWl-15" value="Shuffle Deck" style="rounded=1;whiteSpace=wrap;html=1;" vertex="1" parent="1">
          <mxGeometry x="200" y="210" width="120" height="60" as="geometry" />
        </mxCell>
        <mxCell id="0r4grzwR4e4F5FuuQjWl-21" value="" style="edgeStyle=orthogonalEdgeStyle;rounded=0;orthogonalLoop=1;jettySize=auto;html=1;" edge="1" parent="1" source="0r4grzwR4e4F5FuuQjWl-18" target="0r4grzwR4e4F5FuuQjWl-20">
          <mxGeometry relative="1" as="geometry" />
        </mxCell>
        <mxCell id="0r4grzwR4e4F5FuuQjWl-18" value="Cut the Cards" style="rounded=1;whiteSpace=wrap;html=1;" vertex="1" parent="1">
          <mxGeometry x="400" y="210" width="120" height="60" as="geometry" />
        </mxCell>
        <mxCell id="0r4grzwR4e4F5FuuQjWl-20" value="Flip Top Card" style="rounded=1;whiteSpace=wrap;html=1;" vertex="1" parent="1">
          <mxGeometry x="600" y="210" width="120" height="60" as="geometry" />
        </mxCell>
        <mxCell id="0r4grzwR4e4F5FuuQjWl-22" value="Flip Top Card" style="rounded=1;whiteSpace=wrap;html=1;" vertex="1" parent="1">
          <mxGeometry x="40" y="650" width="120" height="60" as="geometry" />
        </mxCell>
      </root>
    </mxGraphModel>
  </diagram>
</mxfile>
